<mxfile host="app.diagrams.net" modified="2021-01-02T17:02:11.114Z" agent="5.0 (Windows NT 10.0; Win64; x64) AppleWebKit/537.36 (KHTML, like Gecko) Chrome/87.0.4280.66 Safari/537.36" etag="tUi3LJ-7eL8hCj9S7edb" version="14.1.4" type="github">
  <diagram id="C5RBs43oDa-KdzZeNtuy" name="Page-1">
    <mxGraphModel dx="1102" dy="614" grid="1" gridSize="10" guides="1" tooltips="1" connect="1" arrows="1" fold="1" page="1" pageScale="1" pageWidth="827" pageHeight="1169" math="0" shadow="0">
      <root>
        <mxCell id="WIyWlLk6GJQsqaUBKTNV-0" />
        <mxCell id="WIyWlLk6GJQsqaUBKTNV-1" parent="WIyWlLk6GJQsqaUBKTNV-0" />
        <mxCell id="FGB6RuAwcSteGcFk_Uby-0" value="View" style="rounded=1;whiteSpace=wrap;html=1;" parent="WIyWlLk6GJQsqaUBKTNV-1" vertex="1">
          <mxGeometry x="70" y="150" width="180" height="60" as="geometry" />
        </mxCell>
        <mxCell id="FGB6RuAwcSteGcFk_Uby-2" value="View" style="rounded=1;whiteSpace=wrap;html=1;" parent="WIyWlLk6GJQsqaUBKTNV-1" vertex="1">
          <mxGeometry x="70" y="430" width="180" height="60" as="geometry" />
        </mxCell>
        <mxCell id="FGB6RuAwcSteGcFk_Uby-3" value="" style="endArrow=none;html=1;exitX=0.5;exitY=0;exitDx=0;exitDy=0;" parent="WIyWlLk6GJQsqaUBKTNV-1" source="FGB6RuAwcSteGcFk_Uby-2" edge="1">
          <mxGeometry width="50" height="50" relative="1" as="geometry">
            <mxPoint x="159.5" y="290" as="sourcePoint" />
            <mxPoint x="159.5" y="210" as="targetPoint" />
          </mxGeometry>
        </mxCell>
        <mxCell id="FGB6RuAwcSteGcFk_Uby-4" value="Controller" style="rounded=1;whiteSpace=wrap;html=1;" parent="WIyWlLk6GJQsqaUBKTNV-1" vertex="1">
          <mxGeometry x="300" y="150" width="180" height="60" as="geometry" />
        </mxCell>
        <mxCell id="FGB6RuAwcSteGcFk_Uby-5" value="Controller" style="rounded=1;whiteSpace=wrap;html=1;" parent="WIyWlLk6GJQsqaUBKTNV-1" vertex="1">
          <mxGeometry x="300" y="430" width="180" height="60" as="geometry" />
        </mxCell>
        <mxCell id="FGB6RuAwcSteGcFk_Uby-6" value="" style="endArrow=none;html=1;exitX=0.5;exitY=0;exitDx=0;exitDy=0;" parent="WIyWlLk6GJQsqaUBKTNV-1" source="xknU8V1YISgp9DnoOgRf-1" edge="1">
          <mxGeometry width="50" height="50" relative="1" as="geometry">
            <mxPoint x="389.5" y="290" as="sourcePoint" />
            <mxPoint x="389.5" y="210" as="targetPoint" />
          </mxGeometry>
        </mxCell>
        <mxCell id="FGB6RuAwcSteGcFk_Uby-7" value="Model" style="rounded=1;whiteSpace=wrap;html=1;" parent="WIyWlLk6GJQsqaUBKTNV-1" vertex="1">
          <mxGeometry x="530" y="150" width="180" height="60" as="geometry" />
        </mxCell>
        <mxCell id="FGB6RuAwcSteGcFk_Uby-8" value="Model" style="rounded=1;whiteSpace=wrap;html=1;" parent="WIyWlLk6GJQsqaUBKTNV-1" vertex="1">
          <mxGeometry x="530" y="430" width="180" height="60" as="geometry" />
        </mxCell>
        <mxCell id="FGB6RuAwcSteGcFk_Uby-9" value="" style="endArrow=none;html=1;exitX=0.5;exitY=0;exitDx=0;exitDy=0;" parent="WIyWlLk6GJQsqaUBKTNV-1" source="FGB6RuAwcSteGcFk_Uby-8" edge="1">
          <mxGeometry width="50" height="50" relative="1" as="geometry">
            <mxPoint x="619.5" y="290" as="sourcePoint" />
            <mxPoint x="619.5" y="210" as="targetPoint" />
          </mxGeometry>
        </mxCell>
        <mxCell id="FGB6RuAwcSteGcFk_Uby-10" value="" style="endArrow=classic;html=1;" parent="WIyWlLk6GJQsqaUBKTNV-1" edge="1">
          <mxGeometry width="50" height="50" relative="1" as="geometry">
            <mxPoint x="160" y="260" as="sourcePoint" />
            <mxPoint x="390" y="260" as="targetPoint" />
          </mxGeometry>
        </mxCell>
        <mxCell id="FGB6RuAwcSteGcFk_Uby-11" value="" style="endArrow=classic;html=1;" parent="WIyWlLk6GJQsqaUBKTNV-1" edge="1">
          <mxGeometry width="50" height="50" relative="1" as="geometry">
            <mxPoint x="390" y="260" as="sourcePoint" />
            <mxPoint x="620" y="260" as="targetPoint" />
          </mxGeometry>
        </mxCell>
        <mxCell id="xbyktGyrdZoSaX2DfJS7-0" value="Update" style="text;html=1;align=center;verticalAlign=middle;resizable=0;points=[];autosize=1;" parent="WIyWlLk6GJQsqaUBKTNV-1" vertex="1">
          <mxGeometry x="245" y="240" width="50" height="20" as="geometry" />
        </mxCell>
        <mxCell id="xbyktGyrdZoSaX2DfJS7-2" value="Get/set info" style="text;html=1;strokeColor=none;fillColor=none;align=center;verticalAlign=middle;whiteSpace=wrap;rounded=0;" parent="WIyWlLk6GJQsqaUBKTNV-1" vertex="1">
          <mxGeometry x="490" y="230" width="40" height="20" as="geometry" />
        </mxCell>
        <mxCell id="xknU8V1YISgp9DnoOgRf-0" value="" style="html=1;verticalAlign=bottom;labelBackgroundColor=none;endArrow=open;endFill=0;dashed=1;" parent="WIyWlLk6GJQsqaUBKTNV-1" edge="1">
          <mxGeometry width="160" relative="1" as="geometry">
            <mxPoint x="620" y="360" as="sourcePoint" />
            <mxPoint x="160" y="360" as="targetPoint" />
          </mxGeometry>
        </mxCell>
        <mxCell id="xknU8V1YISgp9DnoOgRf-1" value="New Data" style="text;html=1;align=center;verticalAlign=middle;resizable=0;points=[];autosize=1;" parent="WIyWlLk6GJQsqaUBKTNV-1" vertex="1">
          <mxGeometry x="355" y="340" width="70" height="20" as="geometry" />
        </mxCell>
        <mxCell id="xknU8V1YISgp9DnoOgRf-3" value="" style="endArrow=none;html=1;exitX=0.5;exitY=0;exitDx=0;exitDy=0;" parent="WIyWlLk6GJQsqaUBKTNV-1" source="FGB6RuAwcSteGcFk_Uby-5" target="xknU8V1YISgp9DnoOgRf-1" edge="1">
          <mxGeometry width="50" height="50" relative="1" as="geometry">
            <mxPoint x="390" y="430" as="sourcePoint" />
            <mxPoint x="389.5" y="210" as="targetPoint" />
          </mxGeometry>
        </mxCell>
        <mxCell id="xknU8V1YISgp9DnoOgRf-6" value="" style="edgeStyle=segmentEdgeStyle;endArrow=classic;html=1;" parent="WIyWlLk6GJQsqaUBKTNV-1" edge="1">
          <mxGeometry width="50" height="50" relative="1" as="geometry">
            <mxPoint x="160" y="420" as="sourcePoint" />
            <mxPoint x="160" y="380" as="targetPoint" />
            <Array as="points">
              <mxPoint x="230" y="420" />
              <mxPoint x="230" y="380" />
              <mxPoint x="160" y="380" />
            </Array>
          </mxGeometry>
        </mxCell>
        <mxCell id="xknU8V1YISgp9DnoOgRf-7" value="Update" style="text;html=1;align=center;verticalAlign=middle;resizable=0;points=[];autosize=1;" parent="WIyWlLk6GJQsqaUBKTNV-1" vertex="1">
          <mxGeometry x="170" y="400" width="50" height="20" as="geometry" />
        </mxCell>
      </root>
    </mxGraphModel>
  </diagram>
</mxfile>
